<?xml version="1.0" encoding="utf-8"?>
<!-- Svg Vector Icons : http://www.onlinewebfonts.com/icon -->
<!DOCTYPE svg PUBLIC "-//W3C//DTD SVG 1.1//EN" "http://www.w3.org/Graphics/SVG/1.1/DTD/svg11.dtd">
<svg version="1.1" xmlns="http://www.w3.org/2000/svg" xmlns:xlink="http://www.w3.org/1999/xlink" x="0px" y="0px" viewBox="0 0 1000 1000" enable-background="new 0 0 1000 1000" xml:space="preserve">
<metadata> Svg Vector Icons : http://www.onlinewebfonts.com/icon </metadata>
<g><g transform="translate(0.000000,511.000000) scale(0.100000,-0.100000)"><path d="M4626,4991.1c-146.2-34.4-296.7-165.5-350.4-305.3c-17.2-45.1-88.2-827.7-88.2-973.8c0-17.2-12.9-32.2-30.1-32.2c-58.1,0-371.9-113.9-578.3-210.7l-208.5-96.7l-49.4,43c-328.9,294.5-687.9,584.7-763.2,614.8c-107.5,43-212.8,47.3-335.4,10.8c-68.8-19.3-154.8-90.3-384.8-318.2c-165.5-159.1-318.2-328.9-344-376.2c-58-113.9-60.2-313.9-2.1-423.5c21.5-43,172-232.2,333.2-419.2l294.5-339.7l-116.1-234.3c-62.4-129-139.7-309.6-169.8-402l-55.9-167.7l-133.3-10.7c-73.1-8.6-273-23.7-445-34.4c-172-12.9-339.7-27.9-376.2-34.4c-139.7-27.9-260.1-124.7-341.8-277.3c-43-81.7-45.2-118.2-51.6-767.5c-8.6-767.5,2.1-870.7,109.6-1010.4c124.7-163.4,199.9-187,737.4-225.7l472.9-34.4l70.9-217.1c38.7-120.4,79.6-242.9,92.4-273c21.5-53.8,10.7-70.9-144-247.2c-187-217.1-251.5-337.5-301-567.5c-49.4-225.7-66.6-593.3-32.2-700.8c30.1-98.9,520.2-610.5,649.2-675c118.2-62.4,232.2-73.1,363.3-34.4c96.7,28,174.1,83.8,475.1,341.8l359,311.7l199.9-103.2c109.6-58.1,288.1-135.4,397.7-172c232.2-81.7,206.4-21.5,245.1-601.9c27.9-466.5,51.6-548.2,193.5-675c146.2-131.1,236.5-148.3,707.3-139.7c365.5,8.6,378.4,10.8,477.2,68.8c107.5,62.4,193.5,156.9,230,255.8c12.9,32.2,38.7,268.7,55.9,526.7c19.4,258,36.5,468.6,38.7,468.6c103.2,23.6,445,148.3,601.9,221.4l208.5,96.7l49.4-43c361.2-324.6,687.9-586.9,773.9-619.1c116.1-45.1,264.4-36.6,382.7,19.4c43,19.3,202.1,163.4,356.9,320.3c309.6,313.9,328.9,346.1,328.9,595.5c0,174.2-51.6,511.6-98.9,660c-25.8,81.7-86,172-217.1,322.5c-101,120.4-176.3,223.6-169.8,242.9c12.9,45.2,187,503.1,195.6,511.6c4.3,4.3,208.5,21.5,453.6,38.7c247.2,19.3,485.8,43,531,53.7c101.1,25.8,238.6,148.3,301,264.4c45.2,86,47.3,109.6,47.3,840.5c0,819.1,0,821.2-126.8,971.7c-111.8,131.1-197.8,154.8-715.9,193.5l-468.6,34.4l-71,217.1c-38.7,120.4-109.6,298.8-154.8,397.7c-47.3,98.9-86,187-86,197.8c0,8.6,139.7,178.4,311.7,378.3c264.4,303.1,318.1,376.2,346.1,475.1c38.7,133.3,27.9,247.2-34.4,365.5c-49.4,98.9-565.4,610.5-666.4,662.1c-98.9,51.6-328.9,53.7-421.3,4.3c-38.7-21.5-223.6-172-412.8-337.5l-344-298.8l-202.1,103.2c-109.6,58-290.2,135.4-397.7,172c-232.2,81.7-208.5,23.7-242.9,569.7c-32.2,500.9-45.2,554.6-180.6,687.9c-81.7,81.7-137.6,118.2-210.7,135.4C5384.9,5014.7,4735.7,5019,4626,4991.1z M5348.3,4453.6c0-23.6,15.1-242.9,32.2-485.8c47.3-627.7,90.3-698.7,483.7-827.7c111.8-38.7,320.3-126.8,462.2-197.8c296.7-150.5,447.1-178.4,595.5-107.5c45.1,21.5,236.5,174.1,427.8,337.5l346.1,298.8l204.2-204.2l206.4-206.4l-298.8-346.1c-163.4-191.3-318.2-382.7-339.7-425.7c-23.6-43-47.3-129-51.6-191.3c-8.6-105.3,2.1-137.6,120.4-389.1c70.9-150.5,154.8-359,184.9-462.2c64.5-223.6,96.7-288.1,178.4-363.3c116.1-109.6,182.7-129,582.6-159.1c208.5-17.2,442.9-34.4,520.3-36.6l139.7-6.4l6.4-324.6c4.3-294.5,2.2-326.8-34.4-361.2c-34.4-28-129-40.9-490.2-66.7c-574-40.8-576.2-43-672.9-131.1c-68.8-60.2-96.8-113.9-163.4-303.1c-43-126.8-131.1-333.2-195.6-460c-94.6-184.9-116.1-249.4-116.1-333.2c0-133.3,15.1-156.9,374.1-567.5c202.1-230,290.2-350.4,292.4-387c0-68.8-462.2-537.4-531-537.4c-30.1,0-180.6,116.1-397.7,303.1c-193.5,167.7-378.4,322.5-414.9,344c-113.9,70.9-236.5,53.8-485.8-66.7c-122.5-58-305.3-131.1-406.3-161.2c-451.4-137.6-455.8-146.2-505.2-806.2c-19.3-264.4-45.1-494.4-58-509.5c-17.2-21.5-113.9-27.9-382.6-27.9c-309.6,0-365.5,4.3-389.1,36.6c-21.5,23.6-40.9,184.9-64.5,522.4c-38.7,522.4-51.6,574-165.5,670.7c-34.4,27.9-148.3,79.5-253.7,113.9c-105.3,34.4-301,118.2-434.3,184.9c-135.4,68.8-270.9,131.1-305.3,137.6c-131.1,27.9-217.1-21.5-604.1-354.7c-206.4-176.3-393.4-322.5-414.9-322.5c-23.7,0-146.2,103.2-285.9,240.8c-189.2,187-242.9,253.7-242.9,298.8c0,43,79.5,148.3,313.9,419.2c174.1,199.9,328.9,393.4,344,432.1c49.4,116.1,36.5,202.1-68.8,417.1c-109.6,225.7-161.2,354.7-212.8,546c-19.3,70.9-58,163.4-86,206.4C2009.8-37.2,1941-20,1410,18.7c-402,30.1-483.7,43-515.9,75.2c-34.4,34.4-38.7,79.5-38.7,361.2c0,320.3,0,322.5,49.4,322.5c25.8,0,260.1,15.1,520.2,34.4c421.4,30.1,485.9,38.7,586.9,86c148.3,73.1,208.5,154.8,298.8,421.3c40.9,120.4,131.1,331.1,202.1,468.6c113.9,221.4,126.8,262.3,126.8,376.2c0,172-47.3,249.4-393.4,647.1l-275.2,316l199.9,202.1c109.6,109.6,204.2,199.9,212.8,199.9c6.4,0,156.9-126.8,333.2-279.5c406.3-354.7,468.6-393.4,640.6-395.5c116.1-2.2,159.1,10.7,389.1,120.4c141.9,66.6,359,152.6,483.7,191.3c202.1,60.2,236.5,79.5,324.6,169.8c122.5,124.7,137.6,187,169.8,666.4c12.9,195.6,27.9,387,34.4,425.6l10.7,68.8h288.1C5335.5,4496.6,5348.3,4494.5,5348.3,4453.6z M1392.8-232.8c470.8-32.2,470.8-32.2,505.2-113.9c15.1-38.7,34.4-98.9,43-137.6l12.9-68.8l-71,19.3c-38.7,10.7-262.3,30.1-494.4,45.2l-425.6,25.8V-336C962.9-189.8,913.4-200.6,1392.8-232.8z M9045.9-424.1V-551l-133.3-12.9c-75.2-8.6-275.2-23.7-447.1-34.4c-172-12.9-344-27.9-380.5-34.4l-70.9-12.9l34.4,103.2c58.1,176.3,55.9,174.1,503,208.5c219.3,17.2,419.2,32.2,447.1,34.4C9041.6-297.3,9045.9-305.9,9045.9-424.1z M3527.5-2412.7c124.7-64.5,320.3-146.2,432.1-184.9c131.1-43,217.1-83.8,238.6-113.9c27.9-40.9,47.3-230,23.7-230c-43,0-369.8,135.4-561.1,232.2c-331,167.7-494.4,176.3-683.6,30.1c-40.9-32.2-208.5-174.1-369.8-313.9l-294.5-255.8l-191.3,191.3c-152.6,150.5-191.3,202.1-191.3,251.5v62.4l109.6-98.9c120.4-107.5,242.9-152.6,354.7-131.1c92.4,17.2,202.1,96.7,567.5,414.9c165.5,144,309.6,262.3,320.3,262.3C3293.2-2296.6,3405-2348.2,3527.5-2412.7z M7038-2674.9c199.9-174.1,393.4-328.9,432.1-344c148.3-62.4,288-23.7,445,122.5l98.9,90.3v-62.3c0-51.6-38.7-101-191.3-253.7l-191.3-191.3l-53.8,40.8c-30.1,21.5-189.2,159.1-356.9,303.1c-165.5,144-333.2,279.5-371.9,301c-47.3,23.6-118.2,36.5-210.7,36.5c-122.5,0-163.4-10.7-333.2-98.9c-189.2-96.7-541.8-232.2-604.1-232.2c-25.8,0-27.9,21.5-17.2,113.9c6.4,60.2,23.6,122.5,38.7,135.4c12.9,12.9,135.4,58,270.9,103.2c135.4,43,320.3,116.1,408.5,161.2c88.1,45.1,187,83.8,217.1,86C6661.8-2361.1,6758.6-2434.2,7038-2674.9z M5262.4-4074.4c0-208.5,10.8-199.9-303.1-199.9c-204.2,0-281.6,6.4-285.9,27.9c-6.5,12.9-15.1,81.7-21.5,150.5l-12.9,122.5h311.7h311.7V-4074.4z"/><path d="M4828.1,2602.7c-578.3-47.3-1160.9-356.9-1528.5-814.8c-169.8-210.7-356.8-571.8-423.5-821.2c-62.3-227.9-88.1-558.9-62.3-806.2C2934.2-1019.6,3963.9-1903.2,5142-1838.7c999.6,55.9,1786.4,711.6,2061.6,1713.3c34.4,131.2,43,225.7,43,505.2c0,303.1-6.4,369.8-55.9,552.5c-111.8,423.5-326.8,782.5-640.6,1077C6081.4,2450.1,5485.9,2656.5,4828.1,2602.7z M5320.4,1998.6c150.5-55.9,311.7-210.7,387-371.9c51.6-111.8,60.2-154.8,60.2-322.5c0-176.3-6.4-208.5-70.9-337.5c-111.8-227.9-296.7-363.3-552.5-404.1c-333.2-53.8-644.9,113.9-791.1,425.6c-60.2,124.7-68.8,167.7-66.6,316c0,137.6,10.8,195.6,55.9,294.5C4518.6,1983.6,4918.4,2147,5320.4,1998.6z M4505.6,358.4c12.9-27.9,86-133.3,163.4-234.3c77.4-101,161.2-221.4,189.2-268.7c27.9-49.5,53.7-88.1,62.4-88.1c6.4,0,23.6,70.9,36.5,156.9c30.1,176.3,19.4,227.9-70.9,346.1c-86,111.8-75.2,120.4,139.7,120.4c223.6,0,232.2-10.7,129-154.8c-70.9-98.9-79.5-169.8-40.8-367.6l25.8-120.4l77.4,126.8c43,70.9,126.8,191.3,189.2,268.7c62.4,75.2,129,169.8,146.2,206.4c32.2,58,43,64.5,103.2,51.6c240.8-51.6,423.5-210.7,464.4-399.9c30.1-137.6,30.1-462.2,0-632c-34.4-197.8-96.7-292.4-210.7-326.8c-305.3-88.1-1412.4-90.3-1756.3-4.3c-92.4,23.6-103.2,34.4-152.6,141.9c-107.5,234.3-109.6,795.4-4.3,965.2c62.3,103.2,167.7,178.4,313.9,223.6C4471.3,420.7,4477.7,420.7,4505.6,358.4z"/></g></g>
</svg>